<svg width="120" height="120" viewBox="0 0 120 120" fill="none" xmlns="http://www.w3.org/2000/svg">
<path d="M40 110H80C100.1 110 103.7 101.95 104.75 92.15L108.5 52.15C109.85 39.95 106.35 30 85 30H35C13.65 30 10.15 39.95 11.5 52.15L15.25 92.15C16.3 101.95 19.9 110 40 110Z" stroke="#292D32" stroke-width="3" stroke-miterlimit="10" stroke-linecap="round" stroke-linejoin="round"/>
<path d="M40 30V26C40 17.15 40 10 56 10H64C80 10 80 17.15 80 26V30" stroke="#292D32" stroke-width="3" stroke-miterlimit="10" stroke-linecap="round" stroke-linejoin="round"/>
<path d="M70 65V70C70 70.05 70 70.05 70 70.1C70 75.55 69.95 80 60 80C50.1 80 50 75.6 50 70.15V65C50 60 50 60 55 60H65C70 60 70 60 70 65Z" stroke="#292D32" stroke-width="3" stroke-miterlimit="10" stroke-linecap="round" stroke-linejoin="round"/>
<path d="M108.25 55C96.7 63.4 83.5 68.4 70 70.1" stroke="#292D32" stroke-width="3" stroke-miterlimit="10" stroke-linecap="round" stroke-linejoin="round"/>
<path d="M13.1 56.35C24.35 64.05 37.05 68.7 50 70.15" stroke="#292D32" stroke-width="3" stroke-miterlimit="10" stroke-linecap="round" stroke-linejoin="round"/>
</svg>
