<svg width="120" height="120" viewBox="0 0 120 120" fill="none" xmlns="http://www.w3.org/2000/svg">
<path d="M100 34.75V85.25C99.2 85.1 98.35 85 97.5 85C90.6 85 85 90.6 85 97.5C85 98.35 85.1 99.2 85.25 100H34.75C34.9 99.2 35 98.35 35 97.5C35 90.6 29.4 85 22.5 85C21.65 85 20.8 85.1 20 85.25V34.75C20.8 34.9 21.65 35 22.5 35C29.4 35 35 29.4 35 22.5C35 21.65 34.9 20.8 34.75 20H85.25C85.1 20.8 85 21.65 85 22.5C85 29.4 90.6 35 97.5 35C98.35 35 99.2 34.9 100 34.75Z" stroke="#292D32" stroke-width="3" stroke-linecap="round" stroke-linejoin="round"/>
<path d="M35 22.5C35 29.4 29.4 35 22.5 35C21.65 35 20.8 34.9 20 34.75C14.3 33.6 10 28.55 10 22.5C10 15.6 15.6 10 22.5 10C28.55 10 33.6 14.3 34.75 20C34.9 20.8 35 21.65 35 22.5Z" stroke="#292D32" stroke-width="3" stroke-linecap="round" stroke-linejoin="round"/>
<path d="M110 22.5C110 28.55 105.7 33.6 100 34.75C99.2 34.9 98.35 35 97.5 35C90.6 35 85 29.4 85 22.5C85 21.65 85.1 20.8 85.25 20C86.4 14.3 91.45 10 97.5 10C104.4 10 110 15.6 110 22.5Z" stroke="#292D32" stroke-width="3" stroke-linecap="round" stroke-linejoin="round"/>
<path d="M35 97.5C35 98.35 34.9 99.2 34.75 100C33.6 105.7 28.55 110 22.5 110C15.6 110 10 104.4 10 97.5C10 91.45 14.3 86.4 20 85.25C20.8 85.1 21.65 85 22.5 85C29.4 85 35 90.6 35 97.5Z" stroke="#292D32" stroke-width="3" stroke-linecap="round" stroke-linejoin="round"/>
<path d="M110 97.5C110 104.4 104.4 110 97.5 110C91.45 110 86.4 105.7 85.25 100C85.1 99.2 85 98.35 85 97.5C85 90.6 90.6 85 97.5 85C98.35 85 99.2 85.1 100 85.25C105.7 86.4 110 91.45 110 97.5Z" stroke="#292D32" stroke-width="3" stroke-linecap="round" stroke-linejoin="round"/>
</svg>
